<?xml version="1.0" encoding="UTF-8" standalone="no"?>
<svg
   xmlns:dc="http://purl.org/dc/elements/1.1/"
   xmlns:cc="http://creativecommons.org/ns#"
   xmlns:rdf="http://www.w3.org/1999/02/22-rdf-syntax-ns#"
   xmlns:svg="http://www.w3.org/2000/svg"
   xmlns="http://www.w3.org/2000/svg"
   xmlns:sodipodi="http://sodipodi.sourceforge.net/DTD/sodipodi-0.dtd"
   xmlns:inkscape="http://www.inkscape.org/namespaces/inkscape"
   version="1.1"
   id="Layer_1"
   x="0px"
   y="0px"
   viewBox="0 0 91.199997 56.099998"
   xml:space="preserve"
   sodipodi:docname="Wilkes_Colonels_W_mark.svg"
   width="91.199997"
   height="56.099998"
   inkscape:version="1.0.1 (3bc2e813f5, 2020-09-07)"><metadata
   id="metadata15"><rdf:RDF><cc:Work
       rdf:about=""><dc:format>image/svg+xml</dc:format><dc:type
         rdf:resource="http://purl.org/dc/dcmitype/StillImage" /></cc:Work></rdf:RDF></metadata><defs
   id="defs13" /><sodipodi:namedview
   pagecolor="#ffffff"
   bordercolor="#666666"
   borderopacity="1"
   objecttolerance="10"
   gridtolerance="10"
   guidetolerance="10"
   inkscape:pageopacity="0"
   inkscape:pageshadow="2"
   inkscape:window-width="747"
   inkscape:window-height="480"
   id="namedview11"
   showgrid="false"
   inkscape:zoom="2.9541453"
   inkscape:cx="45.6"
   inkscape:cy="26.8"
   inkscape:window-x="0"
   inkscape:window-y="27"
   inkscape:window-maximized="0"
   inkscape:current-layer="Layer_1" />
<style
   type="text/css"
   id="style2">
	.st0{fill:#002856;}
	.st1{fill:#FFCD00;}
</style>
<g
   id="g8"
   transform="translate(-0.4,-19.2)">
	<polygon
   class="st0"
   points="24,19.2 0.4,19.2 5.3,35.4 11.5,35.4 18.7,59.1 12.5,59.1 17.5,75.3 41.3,75.3 46,58.3 50.7,75.3 74.5,75.3 79.5,59.1 73.3,59.1 80.5,35.4 86.7,35.4 91.6,19.2 68,19.2 59.5,47.1 52.2,22.9 46,22.9 39.8,22.9 32.5,47.1 "
   id="polygon4" />
	<polygon
   class="st1"
   points="33.3,64.9 31.6,64.9 19.5,25 8.4,25 9.8,29.6 16,29.6 26.8,64.9 20.5,64.9 21.9,69.5 36.7,69.5 46,39.2 55.3,69.5 70.1,69.5 71.5,64.9 65.2,64.9 76,29.6 82.2,29.6 83.6,25 72.5,25 60.4,64.9 58.7,64.9 48.2,30.4 46,30.4 43.8,30.4 "
   id="polygon6" />
</g>
</svg>
